<?xml version="1.0" encoding="utf-8"?>
<!-- Generator: Adobe Illustrator 21.1.0, SVG Export Plug-In . SVG Version: 6.00 Build 0)  -->
<svg version="1.1" id="Layer_1" xmlns="http://www.w3.org/2000/svg" xmlns:xlink="http://www.w3.org/1999/xlink" x="0px" y="0px"
	 viewBox="0 0 204.3 81" style="enable-background:new 0 0 204.3 81;" xml:space="preserve">
<style type="text/css">
	.st0{fill:#333232;}
</style>
<g>
	<path class="st0" d="M72.3,23.7c-0.8,0-1.6-0.1-2.3-0.4c-0.7-0.3-1.4-0.7-1.9-1.1c-0.5-0.5-0.9-1.1-1.2-1.7
		c-0.3-0.7-0.4-1.4-0.4-2.1c0-0.9,0.2-1.6,0.5-2.3c0.4-0.7,0.9-1.3,1.5-1.8c0.6-0.5,1.4-0.9,2.3-1.2c0.9-0.3,1.9-0.4,2.9-0.4
		c1.4,0,2.5,0.2,3.4,0.6v-0.5c0-0.8-0.2-1.4-0.7-1.8c-0.5-0.4-1.2-0.6-2.2-0.6c-1,0-1.8,0.2-2.7,0.5c-0.8,0.3-1.7,0.8-2.6,1.4
		l-1.8-3.8c2.2-1.4,4.8-2.1,7.6-2.1c2.7,0,4.8,0.6,6.2,1.8c1.5,1.2,2.2,3,2.2,5.4v3.3c0,0.6,0.1,1,0.3,1.2c0.2,0.2,0.5,0.4,0.9,0.4
		v5.1c-0.5,0.1-1,0.2-1.4,0.2c-0.4,0.1-0.8,0.1-1.2,0.1c-1.1,0-1.9-0.2-2.5-0.6c-0.6-0.4-0.9-1-1.1-1.7l-0.1-0.6
		c-0.7,1-1.6,1.7-2.6,2.2C74.5,23.5,73.5,23.7,72.3,23.7z M74.2,19.4c0.4,0,0.7-0.1,1.1-0.2c0.4-0.1,0.7-0.3,1-0.5
		c0.2-0.2,0.4-0.4,0.6-0.6c0.1-0.2,0.2-0.4,0.2-0.6v-1.2c-0.4-0.1-0.8-0.2-1.2-0.3c-0.4-0.1-0.8-0.1-1.2-0.1c-0.7,0-1.4,0.2-1.9,0.5
		c-0.5,0.4-0.7,0.8-0.7,1.4c0,0.5,0.2,0.9,0.6,1.2C73.1,19.2,73.6,19.4,74.2,19.4z"/>
	<path class="st0" d="M86.4,0h6.1v16.7c0,1.3,0.5,1.9,1.6,1.9c0.3,0,0.5,0,0.8-0.1c0.3-0.1,0.6-0.2,0.8-0.4l0.8,4.5
		c-0.7,0.3-1.5,0.6-2.5,0.8c-0.9,0.2-1.8,0.3-2.6,0.3c-1.6,0-2.9-0.4-3.7-1.2c-0.9-0.8-1.3-2-1.3-3.6V0z"/>
	<path class="st0" d="M97.8,0h6.1v16.7c0,1.3,0.5,1.9,1.6,1.9c0.3,0,0.5,0,0.8-0.1c0.3-0.1,0.6-0.2,0.8-0.4l0.8,4.5
		c-0.7,0.3-1.5,0.6-2.5,0.8c-0.9,0.2-1.8,0.3-2.6,0.3c-1.6,0-2.9-0.4-3.7-1.2c-0.9-0.8-1.3-2-1.3-3.6V0z"/>
	<path class="st0" d="M72.3,51.5c-0.8,0-1.6-0.1-2.3-0.4c-0.7-0.3-1.4-0.7-1.9-1.1c-0.5-0.5-0.9-1.1-1.2-1.7
		c-0.3-0.7-0.4-1.4-0.4-2.1c0-0.9,0.2-1.6,0.5-2.3c0.4-0.7,0.9-1.3,1.5-1.8c0.6-0.5,1.4-0.9,2.3-1.2c0.9-0.3,1.9-0.4,2.9-0.4
		c1.4,0,2.5,0.2,3.4,0.6v-0.5c0-0.8-0.2-1.4-0.7-1.8c-0.5-0.4-1.2-0.6-2.2-0.6c-1,0-1.8,0.2-2.7,0.5c-0.8,0.3-1.7,0.8-2.6,1.4
		l-1.8-3.8c2.2-1.4,4.8-2.1,7.6-2.1c2.7,0,4.8,0.6,6.2,1.8c1.5,1.2,2.2,3,2.2,5.4v3.3c0,0.6,0.1,1,0.3,1.2c0.2,0.2,0.5,0.4,0.9,0.4
		v5.1c-0.5,0.1-1,0.2-1.4,0.2c-0.4,0.1-0.8,0.1-1.2,0.1c-1.1,0-1.9-0.2-2.5-0.6c-0.6-0.4-0.9-1-1.1-1.7l-0.1-0.6
		c-0.7,1-1.6,1.7-2.6,2.2C74.5,51.2,73.5,51.5,72.3,51.5z M74.2,47.1c0.4,0,0.7-0.1,1.1-0.2c0.4-0.1,0.7-0.3,1-0.5
		c0.2-0.2,0.4-0.4,0.6-0.6c0.1-0.2,0.2-0.4,0.2-0.6v-1.2c-0.4-0.1-0.8-0.2-1.2-0.3c-0.4-0.1-0.8-0.1-1.2-0.1c-0.7,0-1.4,0.2-1.9,0.5
		c-0.5,0.4-0.7,0.8-0.7,1.4c0,0.5,0.2,0.9,0.6,1.2C73.1,47,73.6,47.1,74.2,47.1z"/>
	<path class="st0" d="M97.3,51.5c-2.5,0-4.4-1-5.4-2.9v2.6h-5.3V27.8h6.1v9c0.5-0.9,1.2-1.6,2.1-2.1c0.9-0.5,2-0.7,3.2-0.7
		c1,0,2,0.2,2.9,0.7c0.9,0.4,1.7,1.1,2.3,1.8c0.6,0.8,1.1,1.7,1.5,2.8c0.4,1.1,0.5,2.2,0.5,3.5c0,1.3-0.2,2.4-0.6,3.5
		c-0.4,1.1-0.9,2-1.6,2.7c-0.7,0.8-1.5,1.4-2.5,1.8C99.5,51.3,98.4,51.5,97.3,51.5z M95.6,46.4c1,0,1.8-0.3,2.4-1
		c0.6-0.6,0.9-1.5,0.9-2.6c0-0.5-0.1-1-0.2-1.4c-0.2-0.4-0.4-0.8-0.6-1.2c-0.3-0.3-0.6-0.6-1-0.8c-0.4-0.2-0.8-0.3-1.2-0.3
		c-0.6,0-1.2,0.2-1.8,0.7c-0.6,0.5-1,1.1-1.3,1.8v3C93.5,45.8,94.4,46.4,95.6,46.4z"/>
	<path class="st0" d="M115.6,51.5c-1.5,0-2.8-0.2-4-0.7c-1.1-0.5-2.1-1.1-2.9-1.9s-1.4-1.7-1.8-2.8c-0.4-1.1-0.6-2.2-0.6-3.3
		c0-1.2,0.2-2.3,0.6-3.3c0.4-1.1,1-2,1.8-2.8s1.7-1.4,2.9-1.9c1.1-0.5,2.5-0.7,4-0.7c1.5,0,2.8,0.2,4,0.7c1.2,0.5,2.1,1.1,2.9,1.9
		c0.8,0.8,1.4,1.7,1.8,2.8c0.4,1.1,0.6,2.2,0.6,3.3c0,1.2-0.2,2.3-0.6,3.3s-1,2-1.8,2.8c-0.8,0.8-1.7,1.4-2.9,1.9
		C118.4,51.2,117.1,51.5,115.6,51.5z M112.6,42.7c0,1.1,0.3,2,0.8,2.7c0.6,0.6,1.3,1,2.1,1c0.9,0,1.6-0.3,2.1-1
		c0.6-0.6,0.8-1.5,0.8-2.7c0-1.1-0.3-2-0.8-2.7c-0.6-0.6-1.3-1-2.1-1c-0.9,0-1.6,0.3-2.1,1C112.9,40.7,112.6,41.6,112.6,42.7z"/>
	<path class="st0" d="M132.1,51.5c-1.7,0-3-0.5-3.9-1.6c-0.9-1-1.3-2.5-1.3-4.5V34.3h6.1V44c0,0.7,0.2,1.3,0.5,1.7
		c0.3,0.4,0.8,0.6,1.4,0.6c0.5,0,1-0.1,1.4-0.3c0.5-0.2,1-0.7,1.5-1.4V34.3h6.1v10.1c0,0.6,0.1,1,0.3,1.2c0.2,0.2,0.5,0.4,0.9,0.4
		v5.1c-1,0.2-1.9,0.3-2.6,0.3c-2.1,0-3.3-0.8-3.6-2.3l-0.1-0.6c-0.8,1-1.7,1.8-2.8,2.3C134.7,51.3,133.5,51.5,132.1,51.5z"/>
	<path class="st0" d="M159.1,50.2c-0.9,0.4-1.8,0.7-2.7,0.9c-1,0.2-1.9,0.4-2.9,0.4c-0.7,0-1.3-0.1-2-0.3c-0.6-0.2-1.2-0.4-1.6-0.8
		c-0.5-0.4-0.8-0.9-1.1-1.5c-0.3-0.6-0.4-1.4-0.4-2.3v-7.7h-2.1v-4.6h2.1V29h6.1v5.3h3.3v4.6h-3.3v5.6c0,0.6,0.1,0.9,0.4,1.2
		c0.2,0.2,0.6,0.3,1,0.3c0.3,0,0.6,0,1-0.1c0.4-0.1,0.8-0.2,1.2-0.4L159.1,50.2z"/>
	<path class="st0" d="M78.1,79.3c-2.5,0-4.4-1-5.4-2.9v2.6h-5.3V55.5h6.1v9c0.5-0.9,1.2-1.6,2.1-2.1c0.9-0.5,2-0.7,3.2-0.7
		c1,0,2,0.2,2.9,0.7c0.9,0.4,1.7,1.1,2.3,1.8c0.6,0.8,1.1,1.7,1.5,2.8c0.4,1.1,0.5,2.2,0.5,3.5c0,1.3-0.2,2.4-0.6,3.5
		c-0.4,1.1-0.9,2-1.6,2.7c-0.7,0.8-1.5,1.4-2.5,1.8C80.3,79,79.2,79.3,78.1,79.3z M76.4,74.1c1,0,1.8-0.3,2.4-1
		c0.6-0.6,0.9-1.5,0.9-2.6c0-0.5-0.1-1-0.2-1.4c-0.2-0.4-0.4-0.8-0.6-1.2c-0.3-0.3-0.6-0.6-1-0.8c-0.4-0.2-0.8-0.3-1.2-0.3
		c-0.6,0-1.2,0.2-1.8,0.7c-0.6,0.5-1,1.1-1.3,1.8v3C74.3,73.6,75.2,74.1,76.4,74.1z"/>
	<path class="st0" d="M96.4,79.3c-1.5,0-2.8-0.2-3.9-0.7c-1.2-0.5-2.1-1.1-2.9-1.9c-0.8-0.8-1.4-1.7-1.8-2.7c-0.4-1-0.6-2.1-0.6-3.2
		c0-1.2,0.2-2.4,0.6-3.5c0.4-1.1,1-2,1.8-2.9c0.8-0.8,1.7-1.5,2.9-1.9c1.1-0.5,2.5-0.7,4-0.7c1.5,0,2.8,0.2,4,0.7
		c1.2,0.5,2.1,1.1,2.9,1.9c0.8,0.8,1.4,1.7,1.8,2.8c0.4,1.1,0.6,2.2,0.6,3.3c0,0.3,0,0.6,0,1c0,0.3-0.1,0.6-0.1,0.9H93.7
		c0.1,0.9,0.4,1.5,1,1.9c0.6,0.4,1.2,0.6,2,0.6c0.7,0,1.3-0.1,1.9-0.4c0.6-0.3,1-0.7,1.2-1.2l5.2,1.5c-0.7,1.3-1.7,2.4-3.2,3.3
		C100.2,78.8,98.5,79.3,96.4,79.3z M99.1,68.7c-0.1-0.8-0.4-1.5-0.9-1.9c-0.5-0.5-1.1-0.7-1.9-0.7c-0.8,0-1.4,0.2-1.9,0.7
		c-0.5,0.5-0.8,1.1-0.9,1.9H99.1z"/>
	<path class="st0" d="M124.6,78.9h-6.1v-9.5c0-0.8-0.2-1.4-0.6-1.8c-0.4-0.4-0.8-0.6-1.4-0.6c-0.2,0-0.4,0.1-0.7,0.2
		c-0.3,0.1-0.5,0.3-0.8,0.5c-0.3,0.2-0.5,0.5-0.8,0.8c-0.2,0.3-0.4,0.6-0.6,1v9.5h-6.1V55.5h6.1v9c0.6-0.9,1.4-1.6,2.3-2.1
		c1-0.5,2-0.7,3.2-0.7c1.2,0,2.1,0.2,2.8,0.6c0.7,0.4,1.2,0.9,1.6,1.5c0.4,0.6,0.6,1.3,0.7,2c0.1,0.7,0.2,1.4,0.2,2V78.9z"/>
	<path class="st0" d="M132.5,79.3c-0.8,0-1.6-0.1-2.3-0.4c-0.7-0.3-1.4-0.7-1.9-1.1c-0.5-0.5-0.9-1.1-1.2-1.7
		c-0.3-0.7-0.4-1.4-0.4-2.1c0-0.9,0.2-1.6,0.5-2.3c0.4-0.7,0.9-1.3,1.5-1.8c0.6-0.5,1.4-0.9,2.3-1.2c0.9-0.3,1.9-0.4,2.9-0.4
		c1.4,0,2.5,0.2,3.4,0.6v-0.5c0-0.8-0.2-1.4-0.7-1.8c-0.5-0.4-1.2-0.6-2.2-0.6c-1,0-1.8,0.2-2.7,0.5c-0.8,0.3-1.7,0.8-2.6,1.4
		l-1.8-3.8c2.2-1.4,4.8-2.1,7.6-2.1c2.7,0,4.8,0.6,6.2,1.8c1.5,1.2,2.2,3,2.2,5.4v3.3c0,0.6,0.1,1,0.3,1.2c0.2,0.2,0.5,0.4,0.9,0.4
		v5.1c-0.5,0.1-1,0.2-1.4,0.2c-0.4,0.1-0.8,0.1-1.2,0.1c-1.1,0-1.9-0.2-2.5-0.6c-0.6-0.4-0.9-1-1.1-1.7l-0.1-0.6
		c-0.7,1-1.6,1.7-2.6,2.2C134.7,79,133.6,79.3,132.5,79.3z M134.3,74.9c0.4,0,0.7-0.1,1.1-0.2c0.4-0.1,0.7-0.3,1-0.5
		c0.2-0.2,0.4-0.4,0.6-0.6c0.1-0.2,0.2-0.4,0.2-0.6v-1.2c-0.4-0.1-0.8-0.2-1.2-0.3c-0.4-0.1-0.8-0.1-1.2-0.1c-0.7,0-1.4,0.2-1.9,0.5
		c-0.5,0.4-0.7,0.8-0.7,1.4c0,0.5,0.2,0.9,0.6,1.2C133.3,74.8,133.7,74.9,134.3,74.9z"/>
	<path class="st0" d="M150.2,78.9l-5.7-16.9h6.2l3,12.1l3-12.1h5.7l-5.7,16.9H150.2z"/>
	<path class="st0" d="M164.1,60.7v-5.1h6.1v5.1H164.1z M164.1,78.9V62.1h6.1v16.9H164.1z"/>
	<path class="st0" d="M181.5,79.3c-1.5,0-2.8-0.2-4-0.7c-1.1-0.5-2.1-1.1-2.9-1.9s-1.4-1.7-1.8-2.8c-0.4-1.1-0.6-2.2-0.6-3.3
		c0-1.2,0.2-2.3,0.6-3.3c0.4-1.1,1-2,1.8-2.8c0.8-0.8,1.7-1.4,2.9-1.9c1.1-0.5,2.5-0.7,4-0.7c1.5,0,2.8,0.2,4,0.7
		c1.2,0.5,2.1,1.1,2.9,1.9c0.8,0.8,1.4,1.7,1.8,2.8c0.4,1.1,0.6,2.2,0.6,3.3c0,1.2-0.2,2.3-0.6,3.3c-0.4,1.1-1,2-1.8,2.8
		c-0.8,0.8-1.7,1.4-2.9,1.9C184.3,79,183,79.3,181.5,79.3z M178.5,70.5c0,1.1,0.3,2,0.8,2.7c0.6,0.6,1.3,1,2.1,1
		c0.9,0,1.6-0.3,2.1-1c0.6-0.6,0.8-1.5,0.8-2.7c0-1.1-0.3-2-0.8-2.7c-0.6-0.6-1.3-1-2.1-1c-0.9,0-1.6,0.3-2.1,1
		C178.8,68.5,178.5,69.4,178.5,70.5z"/>
	<path class="st0" d="M204.3,67.3c-1.2,0-2.2,0.1-3.2,0.4c-1,0.3-1.7,0.7-2.1,1.3v10h-6.1V62.1h5.6v3.2c0.6-1.1,1.3-2,2.2-2.6
		c0.9-0.6,1.8-0.9,2.9-0.9c0.4,0,0.7,0,0.8,0V67.3z"/>
</g>
<g>
	<circle class="st0" cx="25.7" cy="16.9" r="10.6"/>
	<path class="st0" d="M50.8,40.6c0.2,0,0.3,0,0.5,0l0.1-5.8c0-2.8-2.4-5-5.2-4.8C36.6,31,15.9,32.6,4,30.9c-2.2-0.3-4.2,1.5-4,3.8
		c0.1,1.6,0.3,3.7,0.5,5.9c0.1,0,0.3,0,0.4,0c5.1,0,9.2,4.1,9.2,9.2c0,4.9-3.9,8.9-8.7,9.1c0.1,6.4-0.1,12.7-0.8,17.5
		c-0.3,2.3,1.4,4.4,3.7,4.4c3.1,0.1,7.4,0.2,12.2,0.2c-0.3-1.6-0.2-3.4,0.6-5.3c1.5-3.3,4.7-5.6,8.3-5.6c5.1,0,9.2,4.1,9.2,9.2
		c0,0.6-0.1,1.2-0.2,1.7c4.2-0.1,8.1-0.2,11.2-0.5c3.1-0.3,5.4-2.8,5.5-5.9l0.2-15.7c-0.1,0-0.2,0-0.3,0c-5.1,0-9.2-4.1-9.2-9.2
		C41.7,44.7,45.8,40.6,50.8,40.6z"/>
</g>
</svg>
